<svg version="1.1" viewBox="0.0 0.0 135.38845144356955 142.9265091863517" fill="none" stroke="none" stroke-linecap="square" stroke-miterlimit="10" xmlns:xlink="http://www.w3.org/1999/xlink" xmlns="http://www.w3.org/2000/svg"><clipPath id="p.0"><path d="m0 0l135.38846 0l0 142.92651l-135.38846 0l0 -142.92651z" clip-rule="nonzero"/></clipPath><g clip-path="url(#p.0)"><path fill="#ffffff" fill-opacity="0.0" d="m0 0l135.38846 0l0 142.92651l-135.38846 0z" fill-rule="evenodd"/><path fill="#ffffff" fill-opacity="0.0" d="m0 0l174.29921 0l0 117.13386l-174.29921 0z" fill-rule="evenodd"/><path fill="#ffffff" d="m57.953125 85.799995l-6.796875 -36.765625l-12.5 37.546875l-1.953125 0l-12.859375 -37.546875l-6.640625 36.765625l-7.421875 0l10.703125 -57.234375l3.5625 0l13.625 41.765625l12.578125 -41.765625l3.515625 0l11.609375 57.234375l-7.421875 0z" fill-rule="nonzero"/><path fill="#ffffff" fill-opacity="0.0" d="m55.34646 50.862206l770.29926 0l0 89.85827l-770.29926 0z" fill-rule="evenodd"/><path fill="#ffffff" d="m101.76833 136.6622l-16.125 -26.328125l-7.625 10.8125l0 15.515625l-7.8125 0l0 -57.234375l7.8125 0l0 31.140625l21.25 -31.140625l8.71875 0l-17.109375 24.8125l19.53125 32.421875l-8.640625 0zm22.460938 -10.984375q2.421875 0 4.1406174 1.71875q1.71875 1.71875 1.71875 4.140625q0 2.421875 -1.71875 4.171875q-1.7187424 1.734375 -4.1406174 1.734375q-2.421875 0 -4.140625 -1.734375q-1.71875 -1.75 -1.71875 -4.171875q0 -2.421875 1.71875 -4.140625q1.71875 -1.71875 4.140625 -1.71875z" fill-rule="nonzero"/></g></svg>