<svg version="1.1" viewBox="0.0 0.0 139.01837270341207 150.49081364829397" fill="none" stroke="none" stroke-linecap="square" stroke-miterlimit="10" xmlns:xlink="http://www.w3.org/1999/xlink" xmlns="http://www.w3.org/2000/svg"><clipPath id="p.0"><path d="m0 0l139.01837 0l0 150.49081l-139.01837 0l0 -150.49081z" clip-rule="nonzero"/></clipPath><g clip-path="url(#p.0)"><path fill="#ffffff" fill-opacity="0.0" d="m0 0l139.01837 0l0 150.49081l-139.01837 0z" fill-rule="evenodd"/><path fill="#ffffff" fill-opacity="0.0" d="m0 0l106.267715 0l0 102.86614l-106.267715 0z" fill-rule="evenodd"/><path fill="#ffffff" d="m34.6875 30.84687q-6.09375 2.0 -9.421875 6.59375q-3.3125 4.59375 -3.3125 11.40625q0 3.03125 0.5625 4.15625q0.5625 1.109375 0.5625 1.359375q-8.5625 0 -8.5625 -7.28125q0 -4.96875 3.796875 -9.96875q3.8125 -5.0 9.765625 -8.15625q5.96875 -3.15625 11.875 -3.15625q2.96875 0 6.09375 1.125l-1.84375 42.15625l17.59375 -42.15625l11.515625 0l-8.390625 58.875l-11.515625 0l5.109375 -35.921875l-15.03125 35.921875l-10.96875 0l1.609375 -36.078125l-13.359375 36.078125l-6.40625 0l20.328125 -54.953125z" fill-rule="nonzero"/><path fill="#ffffff" fill-opacity="0.0" d="m57.180443 50.547012l137.07086 0.03149414l0 128.22047l-137.07086 -0.03149414z" fill-rule="evenodd"/><path fill="#ffffff" d="m101.05544 137.71646q-6.234375 -0.0014343262 -6.234375 -5.3608093q0 -1.765625 0.515625 -4.031128q0.53125 -2.281128 1.484375 -5.8902817q1.125 -3.7653656 1.671875 -6.3902435q0.5625 -2.6404953 0.5625 -4.7342453q0 -5.4375 -4.796875 -5.4385986q-1.359375 -3.1280518E-4 -2.640625 0.32751465l-6.390625 30.154785l-11.53125 -0.0026550293l11.609375 -54.40358q-5.359375 2.2487717 -8.28125 6.7324753q-2.921875 4.4680786 -2.921875 10.796204q0 2.953125 0.5625 4.1251297q0.5625 1.1563721 0.5625 1.3126221q-4.328125 -9.918213E-4 -6.453125 -1.7983551q-2.109375 -1.8129807 -2.109375 -5.9692307q0 -5.109375 4.1875 -9.952164q4.203125 -4.8427887 10.765625 -7.841278q6.5625 -2.998497 13.125 -2.9969864q1.125 2.593994E-4 3.203125 0.15699005l-5.203125 24.483177l8.234375 -11.044983q9.84375 -13.278992 9.921875 -13.185219l8.40625 0.0019302368l-22.25 25.588638l2.8125 -0.0774765q5.4375 0.0012435913 7.671875 2.2830124q2.234375 2.2817612 2.234375 6.281761q0 2.3125 -0.5625 4.9217453q-0.546875 2.593628 -1.59375 6.437134q-0.640625 2.468605 -1.203125 4.8747253q-0.546875 2.406128 -0.546875 3.999878q0 1.84375 0.828125 3.281433q0.84375 1.4376984 2.28125 2.000534q-4.875 1.3582458 -7.921875 1.357544zm22.001831 -1.0418091q-2.640625 -6.1035156E-4 -4.484375 -1.8291626q-1.828125 -1.8441772 -1.828125 -4.4848022q0 -2.6406174 1.828125 -4.5151978q1.84375 -1.8901978 4.484375 -1.889595q2.640625 6.1035156E-4 4.515625 1.8916626q1.8906174 1.8754349 1.8906174 4.51606q0 2.640625 -1.8906174 4.4839478q-1.875 1.8276825 -4.515625 1.8270874z" fill-rule="nonzero"/></g></svg>